<svg xmlns="http://www.w3.org/2000/svg" viewBox="0 0 533.5 544.3"><path fill="#4285f4" d="M533.5 278.4c0-18.6-1.5-37-4.4-54.6H272v103.4h147.3c-6.4 34.7-25.6 64.2-54.7 84v69h88.4c51.6-47.5 81.5-117.8 81.5-201.8z"/><path fill="#34a853" d="M272 544.3c73.7 0 135.6-24.4 180.8-66.2l-88.4-69c-24.6 16.5-56 26.3-92.4 26.3-71 0-131.2-47.9-152.6-112.2H28.9v70.6C74.1 481.7 167.2 544.3 272 544.3z"/><path fill="#fbbc04" d="M119.4 328.2c-8.9-26.7-8.9-55.4 0-82.1V175.5H28.9c-39.6 77.1-39.6 168.2 0 245.3l90.5-92.6z"/><path fill="#ea4335" d="M272 107.7c39.9 0 75.7 13.7 104 40.7l78-78C403.6 24 341.7 0 272 0 167.2 0 74.1 62.6 28.9 156.1l90.5 70.4C140.8 155.6 201 107.7 272 107.7z"/></svg>
